<?xml version="1.0" encoding="UTF-8" standalone="no"?>
<!-- Created with Inkscape (http://www.inkscape.org/) -->

<svg
   width="1800"
   height="480"
   viewBox="0 0 476.24999 127"
   version="1.1"
   id="svg1"
   xml:space="preserve"
   inkscape:export-filename="nasallogo48.png"
   inkscape:export-xdpi="9.6000004"
   inkscape:export-ydpi="9.6000004"
   inkscape:version="1.4 (86a8ad7, 2024-10-11)"
   sodipodi:docname="nasallogo.svg"
   xmlns:inkscape="http://www.inkscape.org/namespaces/inkscape"
   xmlns:sodipodi="http://sodipodi.sourceforge.net/DTD/sodipodi-0.dtd"
   xmlns="http://www.w3.org/2000/svg"
   xmlns:svg="http://www.w3.org/2000/svg"><sodipodi:namedview
     id="namedview1"
     pagecolor="#ffffff"
     bordercolor="#000000"
     borderopacity="0.25"
     inkscape:showpageshadow="2"
     inkscape:pageopacity="0.0"
     inkscape:pagecheckerboard="0"
     inkscape:deskcolor="#d1d1d1"
     inkscape:document-units="px"
     inkscape:zoom="1"
     inkscape:cx="799"
     inkscape:cy="172.5"
     inkscape:window-width="2560"
     inkscape:window-height="1494"
     inkscape:window-x="-11"
     inkscape:window-y="-11"
     inkscape:window-maximized="1"
     inkscape:current-layer="layer2" /><defs
     id="defs1"><inkscape:path-effect
       effect="powerstroke"
       message=""
       id="path-effect5"
       is_visible="true"
       lpeversion="1.3"
       scale_width="1"
       interpolator_type="CentripetalCatmullRom"
       interpolator_beta="0.75"
       start_linecap_type="round"
       end_linecap_type="round"
       offset_points="31.437389,1.2984999"
       linejoin_type="spiro"
       miter_limit="4"
       not_jump="true"
       sort_points="true" /><inkscape:path-effect
       effect="simplify"
       id="path-effect4"
       is_visible="true"
       lpeversion="1.3"
       threshold="0.012"
       steps="1"
       smooth_angles="0"
       helper_size="0"
       simplify_individual_paths="false"
       simplify_just_coalesce="false"
       step="1" /></defs><g
     inkscape:groupmode="layer"
     id="layer2"
     inkscape:label="Layer 2"
     style="display:inline"><path
       style="fill:#162d50;stroke:#000000;stroke-width:3.30729163;stroke-opacity:1;fill-opacity:1;stroke-dasharray:none"
       d="M 3.549233,124.39629 V 42.763929 c 0,0 0,-39.4087626 70.638393,-39.4087626 70.378694,0 70.378694,39.4087626 70.378694,39.4087626 v 81.632361 h -41.552 V 45.793762 c 0,0 0,-21.035698 -28.826694,-21.035698 -28.826698,0 -28.653563,21.035698 -28.653563,21.035698 v 78.602528 z"
       id="path5"
       sodipodi:nodetypes="ccscccccccc"
       inkscape:label="n" /><path
       style="display:inline;fill:#162d50;fill-opacity:1;stroke:#000000;stroke-width:3.30729;stroke-dasharray:none;stroke-opacity:1"
       d="M 162.13935,124.52858 V 71.157792 c 0,0 0,-29.086396 40.16693,-29.086396 40.08045,0 40.08036,29.086396 40.08036,29.086396 v 53.370788 h -23.8924 V 79.121925 c 0,0 0,-5.960919 -4.24176,-2.077601 l -27.96103,25.364036 v -4.408118 c 0,0 58.53773,-57.901216 50.29523,-66.143713 -4.92759,-4.927592 -50.29523,31.64347 -50.29523,44.443061 v 48.22899 z"
       id="path6"
       sodipodi:nodetypes="ccscccccccsccc"
       inkscape:label="a" /><path
       style="display:inline;fill:#162d50;fill-opacity:1;stroke:#000000;stroke-width:3.30729163;stroke-linecap:round;stroke-linejoin:round;stroke-dasharray:none;stroke-opacity:1"
       d="m 271.11444,119.45457 0,-17.10589 c 0,0 14.79166,7.48145 22.78589,7.48145 0,0 11.61296,0 11.61296,-7.98224 0,-8.15615 -11.61296,-8.15615 -11.61296,-8.15615 0,0 -27.10204,0 -27.10204,-26.022675 0,-24.476045 28.04102,-24.476045 28.04102,-24.476045 12.47218,0 26.1877,4.464676 26.1877,4.464676 v 19.075537 c 0,0 -8.13182,-7.640173 -23.40929,-7.640173 0,0 -13.202,0 -13.202,8.576005 0,8.513405 12.05114,8.513405 12.05114,8.513405 0,0 26.47293,0 26.47293,25.66542 0,22.68069 -29.03946,22.68069 -29.03946,22.68069 -14.57464,0 -22.78589,-5.07401 -22.78589,-5.07401 z"
       id="path7"
       inkscape:label="s"
       sodipodi:nodetypes="ccsscssccsscssc" /><path
       style="display:inline;fill:#162d50;fill-opacity:1;stroke:#000000;stroke-width:3.30729;stroke-dasharray:none;stroke-opacity:1"
       d="M 346.98295,124.52858 V 71.157792 c 0,0 0,-29.086396 40.16693,-29.086396 40.08045,0 40.08036,29.086396 40.08036,29.086396 v 53.370788 h -23.8924 V 79.121925 c 0,0 0,-5.960919 -4.24176,-2.077601 l -27.96103,25.364036 v -4.408118 c 0,0 58.53773,-57.901216 50.29523,-66.143713 -4.92759,-4.927592 -50.29523,31.64347 -50.29523,44.443061 v 48.22899 z"
       id="path8"
       sodipodi:nodetypes="ccscccccccsccc"
       inkscape:label="a" /><path
       style="display:inline;fill:#162d50;fill-opacity:1;stroke:#000000;stroke-width:3.30729;stroke-linecap:round;stroke-linejoin:round;stroke-dasharray:none;stroke-opacity:1"
       d="M 455.01718,124.52858 V 5.9531249 h 19.18229 V 124.52858 Z"
       id="path9"
       inkscape:label="l"
       sodipodi:nodetypes="ccccc" /></g></svg>
